<svg width="12" height="12" viewBox="0 0 12 12" fill="none" xmlns="http://www.w3.org/2000/svg">
<path fill-rule="evenodd" clip-rule="evenodd" d="M1.41142 0.380224C1.12666 0.0954672 0.664982 0.0954672 0.380224 0.380224C0.0954672 0.664982 0.0954672 1.12666 0.380224 1.41142L4.96879 5.99999L0.380224 10.5886C0.0954672 10.8733 0.0954672 11.335 0.380224 11.6198C0.664982 11.9045 1.12666 11.9045 1.41142 11.6198L5.99999 7.03119L10.5886 11.6198C10.8733 11.9045 11.335 11.9045 11.6198 11.6198C11.9045 11.335 11.9045 10.8733 11.6198 10.5886L7.03119 5.99999L11.6198 1.41142C11.9045 1.12666 11.9045 0.664982 11.6198 0.380224C11.335 0.0954672 10.8733 0.0954672 10.5886 0.380224L5.99999 4.96879L1.41142 0.380224Z" fill="white"/>
</svg>
